%TF.GenerationSoftware,KiCad,Pcbnew,(6.0.9)*%
%TF.CreationDate,2022-11-26T13:31:22+01:00*%
%TF.ProjectId,MCU_PCB,4d43555f-5043-4422-9e6b-696361645f70,rev?*%
%TF.SameCoordinates,Original*%
%TF.FileFunction,Soldermask,Top*%
%TF.FilePolarity,Negative*%
%FSLAX46Y46*%
G04 Gerber Fmt 4.6, Leading zero omitted, Abs format (unit mm)*
G04 Created by KiCad (PCBNEW (6.0.9)) date 2022-11-26 13:31:22*
%MOMM*%
%LPD*%
G01*
G04 APERTURE LIST*
G04 Aperture macros list*
%AMRoundRect*
0 Rectangle with rounded corners*
0 $1 Rounding radius*
0 $2 $3 $4 $5 $6 $7 $8 $9 X,Y pos of 4 corners*
0 Add a 4 corners polygon primitive as box body*
4,1,4,$2,$3,$4,$5,$6,$7,$8,$9,$2,$3,0*
0 Add four circle primitives for the rounded corners*
1,1,$1+$1,$2,$3*
1,1,$1+$1,$4,$5*
1,1,$1+$1,$6,$7*
1,1,$1+$1,$8,$9*
0 Add four rect primitives between the rounded corners*
20,1,$1+$1,$2,$3,$4,$5,0*
20,1,$1+$1,$4,$5,$6,$7,0*
20,1,$1+$1,$6,$7,$8,$9,0*
20,1,$1+$1,$8,$9,$2,$3,0*%
%AMFreePoly0*
4,1,14,0.230680,0.111820,0.364320,-0.021821,0.377500,-0.053642,0.377500,-0.080000,0.364320,-0.111820,0.332500,-0.125000,-0.332500,-0.125000,-0.364320,-0.111820,-0.377500,-0.080000,-0.377500,0.080000,-0.364320,0.111820,-0.332500,0.125000,0.198860,0.125000,0.230680,0.111820,0.230680,0.111820,$1*%
%AMFreePoly1*
4,1,14,0.364320,0.111820,0.377500,0.080000,0.377501,0.053640,0.364318,0.021819,0.230680,-0.111820,0.198860,-0.125000,-0.332500,-0.125000,-0.364320,-0.111820,-0.377500,-0.080000,-0.377500,0.080000,-0.364320,0.111820,-0.332500,0.125000,0.332500,0.125000,0.364320,0.111820,0.364320,0.111820,$1*%
%AMFreePoly2*
4,1,15,0.053642,0.377500,0.080000,0.377500,0.111820,0.364320,0.125000,0.332500,0.125000,-0.332500,0.111820,-0.364320,0.080000,-0.377500,-0.080000,-0.377500,-0.111820,-0.364320,-0.125000,-0.332500,-0.125000,0.198860,-0.111820,0.230680,0.021820,0.364320,0.053640,0.377501,0.053642,0.377500,0.053642,0.377500,$1*%
%AMFreePoly3*
4,1,14,-0.021820,0.364320,0.111820,0.230679,0.125000,0.198858,0.125000,-0.332500,0.111820,-0.364320,0.080000,-0.377500,-0.080000,-0.377500,-0.111820,-0.364320,-0.125000,-0.332500,-0.125000,0.332500,-0.111820,0.364320,-0.080000,0.377500,-0.053640,0.377500,-0.021820,0.364320,-0.021820,0.364320,$1*%
%AMFreePoly4*
4,1,14,0.364320,0.111820,0.377500,0.080000,0.377500,-0.080000,0.364320,-0.111820,0.332500,-0.125000,-0.198860,-0.125001,-0.230681,-0.111818,-0.364320,0.021820,-0.377500,0.053640,-0.377500,0.080000,-0.364320,0.111820,-0.332500,0.125000,0.332500,0.125000,0.364320,0.111820,0.364320,0.111820,$1*%
%AMFreePoly5*
4,1,15,-0.198858,0.125000,0.332500,0.125000,0.364320,0.111820,0.377500,0.080000,0.377500,-0.080000,0.364320,-0.111820,0.332500,-0.125000,-0.332500,-0.125000,-0.364320,-0.111820,-0.377500,-0.080000,-0.377500,-0.053640,-0.364320,-0.021820,-0.230680,0.111820,-0.198860,0.125001,-0.198858,0.125000,-0.198858,0.125000,$1*%
%AMFreePoly6*
4,1,14,0.111820,0.364320,0.125000,0.332500,0.125001,-0.198860,0.111818,-0.230681,-0.021820,-0.364320,-0.053640,-0.377500,-0.080000,-0.377500,-0.111820,-0.364320,-0.125000,-0.332500,-0.125000,0.332500,-0.111820,0.364320,-0.080000,0.377500,0.080000,0.377500,0.111820,0.364320,0.111820,0.364320,$1*%
%AMFreePoly7*
4,1,14,0.111820,0.364320,0.125000,0.332500,0.125000,-0.332500,0.111820,-0.364320,0.080000,-0.377500,0.053640,-0.377501,0.021819,-0.364318,-0.111820,-0.230680,-0.125000,-0.198860,-0.125000,0.332500,-0.111820,0.364320,-0.080000,0.377500,0.080000,0.377500,0.111820,0.364320,0.111820,0.364320,$1*%
%AMFreePoly8*
4,1,48,0.036020,0.199191,0.037970,0.199714,0.040958,0.198321,0.057086,0.195477,0.069630,0.184951,0.084467,0.178033,0.290533,-0.028033,0.293203,-0.031847,0.294953,-0.032857,0.296080,-0.035957,0.305473,-0.049370,0.306900,-0.065680,0.312500,-0.081066,0.312500,-0.125000,0.310782,-0.134742,0.311361,-0.138024,0.309695,-0.140910,0.307978,-0.150652,0.295450,-0.165579,0.285709,-0.182453,
0.279350,-0.184767,0.275000,-0.189952,0.255809,-0.193336,0.237500,-0.199999,-0.237500,-0.199999,-0.247242,-0.198282,-0.250524,-0.198861,-0.253410,-0.197195,-0.263152,-0.195478,-0.278079,-0.182950,-0.294953,-0.173209,-0.297267,-0.166850,-0.302452,-0.162500,-0.305836,-0.143309,-0.312500,-0.125000,-0.312500,0.125000,-0.310782,0.134742,-0.311361,0.138024,-0.309695,0.140910,-0.307978,0.150652,
-0.295450,0.165579,-0.285709,0.182453,-0.279350,0.184767,-0.275000,0.189952,-0.255809,0.193336,-0.237500,0.199999,0.031434,0.200000,0.036020,0.199191,0.036020,0.199191,$1*%
%AMFreePoly9*
4,1,48,0.247242,0.198282,0.250524,0.198861,0.253410,0.197195,0.263152,0.195478,0.278079,0.182950,0.294953,0.173209,0.297267,0.166850,0.302452,0.162500,0.305836,0.143309,0.312500,0.125000,0.312500,0.081066,0.311691,0.076480,0.312215,0.074529,0.310820,0.071539,0.307977,0.055414,0.297452,0.042871,0.290533,0.028033,0.084467,-0.178033,0.080653,-0.180703,0.079643,-0.182453,
0.076543,-0.183580,0.063130,-0.192973,0.046819,-0.194401,0.031434,-0.200000,-0.237500,-0.199999,-0.247242,-0.198282,-0.250524,-0.198861,-0.253410,-0.197195,-0.263152,-0.195478,-0.278079,-0.182950,-0.294953,-0.173209,-0.297267,-0.166850,-0.302452,-0.162500,-0.305836,-0.143309,-0.312500,-0.125000,-0.312500,0.125000,-0.310782,0.134742,-0.311361,0.138024,-0.309695,0.140910,-0.307978,0.150652,
-0.295450,0.165579,-0.285709,0.182453,-0.279350,0.184767,-0.275000,0.189952,-0.255809,0.193336,-0.237500,0.199999,0.237500,0.199999,0.247242,0.198282,0.247242,0.198282,$1*%
%AMFreePoly10*
4,1,48,0.134742,0.310782,0.138024,0.311361,0.140910,0.309695,0.150652,0.307978,0.165579,0.295450,0.182453,0.285709,0.184767,0.279350,0.189952,0.275000,0.193336,0.255809,0.199999,0.237500,0.199999,-0.237500,0.198282,-0.247242,0.198861,-0.250524,0.197195,-0.253410,0.195478,-0.263152,0.182950,-0.278079,0.173209,-0.294953,0.166850,-0.297267,0.162500,-0.302452,0.143309,-0.305836,
0.125000,-0.312500,-0.125000,-0.312500,-0.134742,-0.310782,-0.138024,-0.311361,-0.140910,-0.309695,-0.150652,-0.307978,-0.165579,-0.295450,-0.182453,-0.285709,-0.184767,-0.279350,-0.189952,-0.275000,-0.193336,-0.255809,-0.199999,-0.237500,-0.200000,0.031434,-0.199191,0.036020,-0.199714,0.037970,-0.198321,0.040958,-0.195477,0.057086,-0.184951,0.069630,-0.178033,0.084467,0.028033,0.290533,
0.031847,0.293203,0.032857,0.294953,0.035957,0.296080,0.049370,0.305473,0.065680,0.306900,0.081066,0.312500,0.125000,0.312500,0.134742,0.310782,0.134742,0.310782,$1*%
%AMFreePoly11*
4,1,48,-0.076480,0.311691,-0.074530,0.312214,-0.071542,0.310821,-0.055414,0.307977,-0.042870,0.297451,-0.028033,0.290533,0.178033,0.084467,0.180703,0.080653,0.182453,0.079643,0.183580,0.076543,0.192973,0.063130,0.194400,0.046820,0.200000,0.031434,0.199999,-0.237500,0.198282,-0.247242,0.198861,-0.250524,0.197195,-0.253410,0.195478,-0.263152,0.182950,-0.278079,0.173209,-0.294953,
0.166850,-0.297267,0.162500,-0.302452,0.143309,-0.305836,0.125000,-0.312500,-0.125000,-0.312500,-0.134742,-0.310782,-0.138024,-0.311361,-0.140910,-0.309695,-0.150652,-0.307978,-0.165579,-0.295450,-0.182453,-0.285709,-0.184767,-0.279350,-0.189952,-0.275000,-0.193336,-0.255809,-0.199999,-0.237500,-0.199999,0.237500,-0.198282,0.247242,-0.198861,0.250524,-0.197195,0.253410,-0.195478,0.263152,
-0.182950,0.278079,-0.173209,0.294953,-0.166850,0.297267,-0.162500,0.302452,-0.143309,0.305836,-0.125000,0.312500,-0.081066,0.312500,-0.076480,0.311691,-0.076480,0.311691,$1*%
%AMFreePoly12*
4,1,48,0.247242,0.198282,0.250524,0.198861,0.253410,0.197195,0.263152,0.195478,0.278079,0.182950,0.294953,0.173209,0.297267,0.166850,0.302452,0.162500,0.305836,0.143309,0.312500,0.125000,0.312500,-0.125000,0.310782,-0.134742,0.311361,-0.138024,0.309695,-0.140910,0.307978,-0.150652,0.295450,-0.165579,0.285709,-0.182453,0.279350,-0.184767,0.275000,-0.189952,0.255809,-0.193336,
0.237500,-0.199999,-0.031434,-0.200000,-0.036020,-0.199191,-0.037971,-0.199715,-0.040961,-0.198320,-0.057086,-0.195477,-0.069629,-0.184952,-0.084467,-0.178033,-0.290533,0.028033,-0.293203,0.031847,-0.294953,0.032857,-0.296080,0.035957,-0.305473,0.049370,-0.306901,0.065681,-0.312500,0.081066,-0.312500,0.125000,-0.310782,0.134742,-0.311361,0.138024,-0.309695,0.140910,-0.307978,0.150652,
-0.295450,0.165579,-0.285709,0.182453,-0.279350,0.184767,-0.275000,0.189952,-0.255809,0.193336,-0.237500,0.199999,0.237500,0.199999,0.247242,0.198282,0.247242,0.198282,$1*%
%AMFreePoly13*
4,1,48,0.247242,0.198282,0.250524,0.198861,0.253410,0.197195,0.263152,0.195478,0.278079,0.182950,0.294953,0.173209,0.297267,0.166850,0.302452,0.162500,0.305836,0.143309,0.312500,0.125000,0.312500,-0.125000,0.310782,-0.134742,0.311361,-0.138024,0.309695,-0.140910,0.307978,-0.150652,0.295450,-0.165579,0.285709,-0.182453,0.279350,-0.184767,0.275000,-0.189952,0.255809,-0.193336,
0.237500,-0.199999,-0.237500,-0.199999,-0.247242,-0.198282,-0.250524,-0.198861,-0.253410,-0.197195,-0.263152,-0.195478,-0.278079,-0.182950,-0.294953,-0.173209,-0.297267,-0.166850,-0.302452,-0.162500,-0.305836,-0.143309,-0.312500,-0.125000,-0.312500,-0.081066,-0.311691,-0.076480,-0.312214,-0.074530,-0.310821,-0.071542,-0.307977,-0.055414,-0.297451,-0.042870,-0.290533,-0.028033,-0.084467,0.178033,
-0.080653,0.180703,-0.079643,0.182453,-0.076543,0.183580,-0.063130,0.192973,-0.046820,0.194400,-0.031434,0.200000,0.237500,0.199999,0.247242,0.198282,0.247242,0.198282,$1*%
%AMFreePoly14*
4,1,48,0.134742,0.310782,0.138024,0.311361,0.140910,0.309695,0.150652,0.307978,0.165579,0.295450,0.182453,0.285709,0.184767,0.279350,0.189952,0.275000,0.193336,0.255809,0.199999,0.237500,0.200000,-0.031434,0.199191,-0.036020,0.199715,-0.037971,0.198320,-0.040961,0.195477,-0.057086,0.184952,-0.069629,0.178033,-0.084467,-0.028033,-0.290533,-0.031847,-0.293203,-0.032857,-0.294953,
-0.035957,-0.296080,-0.049370,-0.305473,-0.065681,-0.306901,-0.081066,-0.312500,-0.125000,-0.312500,-0.134742,-0.310782,-0.138024,-0.311361,-0.140910,-0.309695,-0.150652,-0.307978,-0.165579,-0.295450,-0.182453,-0.285709,-0.184767,-0.279350,-0.189952,-0.275000,-0.193336,-0.255809,-0.199999,-0.237500,-0.199999,0.237500,-0.198282,0.247242,-0.198861,0.250524,-0.197195,0.253410,-0.195478,0.263152,
-0.182950,0.278079,-0.173209,0.294953,-0.166850,0.297267,-0.162500,0.302452,-0.143309,0.305836,-0.125000,0.312500,0.125000,0.312500,0.134742,0.310782,0.134742,0.310782,$1*%
%AMFreePoly15*
4,1,48,0.134742,0.310782,0.138024,0.311361,0.140910,0.309695,0.150652,0.307978,0.165579,0.295450,0.182453,0.285709,0.184767,0.279350,0.189952,0.275000,0.193336,0.255809,0.199999,0.237500,0.199999,-0.237500,0.198282,-0.247242,0.198861,-0.250524,0.197195,-0.253410,0.195478,-0.263152,0.182950,-0.278079,0.173209,-0.294953,0.166850,-0.297267,0.162500,-0.302452,0.143309,-0.305836,
0.125000,-0.312500,0.081066,-0.312500,0.076480,-0.311691,0.074529,-0.312215,0.071539,-0.310820,0.055414,-0.307977,0.042871,-0.297452,0.028033,-0.290533,-0.178033,-0.084467,-0.180703,-0.080653,-0.182453,-0.079643,-0.183580,-0.076543,-0.192973,-0.063130,-0.194401,-0.046819,-0.200000,-0.031434,-0.199999,0.237500,-0.198282,0.247242,-0.198861,0.250524,-0.197195,0.253410,-0.195478,0.263152,
-0.182950,0.278079,-0.173209,0.294953,-0.166850,0.297267,-0.162500,0.302452,-0.143309,0.305836,-0.125000,0.312500,0.125000,0.312500,0.134742,0.310782,0.134742,0.310782,$1*%
G04 Aperture macros list end*
%ADD10RoundRect,0.218750X-0.256250X0.218750X-0.256250X-0.218750X0.256250X-0.218750X0.256250X0.218750X0*%
%ADD11RoundRect,0.150000X0.477297X0.689429X-0.689429X-0.477297X-0.477297X-0.689429X0.689429X0.477297X0*%
%ADD12RoundRect,0.150000X0.625000X-0.150000X0.625000X0.150000X-0.625000X0.150000X-0.625000X-0.150000X0*%
%ADD13RoundRect,0.250000X0.650000X-0.350000X0.650000X0.350000X-0.650000X0.350000X-0.650000X-0.350000X0*%
%ADD14RoundRect,0.600000X1.945000X-0.600000X1.945000X0.600000X-1.945000X0.600000X-1.945000X-0.600000X0*%
%ADD15C,8.000000*%
%ADD16RoundRect,0.140000X-0.219203X-0.021213X-0.021213X-0.219203X0.219203X0.021213X0.021213X0.219203X0*%
%ADD17RoundRect,0.140000X-0.021213X0.219203X-0.219203X0.021213X0.021213X-0.219203X0.219203X-0.021213X0*%
%ADD18RoundRect,0.140000X0.170000X-0.140000X0.170000X0.140000X-0.170000X0.140000X-0.170000X-0.140000X0*%
%ADD19R,1.700000X1.700000*%
%ADD20O,1.700000X1.700000*%
%ADD21R,0.700000X0.900000*%
%ADD22R,0.400000X0.900000*%
%ADD23RoundRect,0.135000X0.185000X-0.135000X0.185000X0.135000X-0.185000X0.135000X-0.185000X-0.135000X0*%
%ADD24RoundRect,0.135000X0.135000X0.185000X-0.135000X0.185000X-0.135000X-0.185000X0.135000X-0.185000X0*%
%ADD25RoundRect,0.100000X0.521491X-0.380070X-0.380070X0.521491X-0.521491X0.380070X0.380070X-0.521491X0*%
%ADD26RoundRect,0.150000X0.825000X0.150000X-0.825000X0.150000X-0.825000X-0.150000X0.825000X-0.150000X0*%
%ADD27RoundRect,0.150000X0.150000X-0.587500X0.150000X0.587500X-0.150000X0.587500X-0.150000X-0.587500X0*%
%ADD28RoundRect,0.140000X-0.140000X-0.170000X0.140000X-0.170000X0.140000X0.170000X-0.140000X0.170000X0*%
%ADD29RoundRect,0.140000X-0.170000X0.140000X-0.170000X-0.140000X0.170000X-0.140000X0.170000X0.140000X0*%
%ADD30RoundRect,0.140000X0.140000X0.170000X-0.140000X0.170000X-0.140000X-0.170000X0.140000X-0.170000X0*%
%ADD31R,2.000000X0.900000*%
%ADD32R,3.375000X2.250000*%
%ADD33FreePoly0,315.000000*%
%ADD34RoundRect,0.062500X-0.309359X0.220971X0.220971X-0.309359X0.309359X-0.220971X-0.220971X0.309359X0*%
%ADD35FreePoly1,315.000000*%
%ADD36FreePoly2,315.000000*%
%ADD37RoundRect,0.062500X-0.309359X-0.220971X-0.220971X-0.309359X0.309359X0.220971X0.220971X0.309359X0*%
%ADD38FreePoly3,315.000000*%
%ADD39FreePoly4,315.000000*%
%ADD40FreePoly5,315.000000*%
%ADD41FreePoly6,315.000000*%
%ADD42FreePoly7,315.000000*%
%ADD43C,3.200000*%
%ADD44RoundRect,0.031500X-0.224153X0.021213X0.021213X-0.224153X0.224153X-0.021213X-0.021213X0.224153X0*%
%ADD45RoundRect,0.031500X-0.021213X-0.224153X0.224153X0.021213X0.021213X0.224153X-0.224153X-0.021213X0*%
%ADD46R,0.800000X1.200000*%
%ADD47R,1.500000X2.000000*%
%ADD48R,9.000000X2.800000*%
%ADD49FreePoly8,225.000000*%
%ADD50RoundRect,0.100000X0.079550X0.220971X-0.220971X-0.079550X-0.079550X-0.220971X0.220971X0.079550X0*%
%ADD51FreePoly9,225.000000*%
%ADD52FreePoly10,225.000000*%
%ADD53RoundRect,0.100000X-0.079550X0.220971X-0.220971X0.079550X0.079550X-0.220971X0.220971X-0.079550X0*%
%ADD54FreePoly11,225.000000*%
%ADD55FreePoly12,225.000000*%
%ADD56FreePoly13,225.000000*%
%ADD57FreePoly14,225.000000*%
%ADD58FreePoly15,225.000000*%
%ADD59RoundRect,0.150000X0.150000X-0.825000X0.150000X0.825000X-0.150000X0.825000X-0.150000X-0.825000X0*%
%ADD60RoundRect,0.135000X-0.035355X0.226274X-0.226274X0.035355X0.035355X-0.226274X0.226274X-0.035355X0*%
G04 APERTURE END LIST*
D10*
%TO.C,D1*%
X127450000Y-65862500D03*
X127450000Y-67437500D03*
%TD*%
D11*
%TO.C,U5*%
X143843878Y-112241099D03*
X142945852Y-111343074D03*
X142047826Y-110445048D03*
X141149801Y-109547022D03*
X137649622Y-113047201D03*
X138547648Y-113945226D03*
X139445674Y-114843252D03*
X140343699Y-115741278D03*
%TD*%
D12*
%TO.C,J6*%
X96632000Y-108897000D03*
X96632000Y-107897000D03*
X96632000Y-106897000D03*
X96632000Y-105897000D03*
X96632000Y-104897000D03*
D13*
X94107000Y-103597000D03*
X94107000Y-110197000D03*
%TD*%
D14*
%TO.C,BT1*%
X101560000Y-78020000D03*
X101560000Y-98820000D03*
D15*
X101560000Y-88420000D03*
%TD*%
D16*
%TO.C,C12*%
X138375339Y-116419539D03*
X139054161Y-117098361D03*
%TD*%
D17*
%TO.C,C3*%
X119313011Y-89576589D03*
X118634189Y-90255411D03*
%TD*%
D18*
%TO.C,C2*%
X142240000Y-124178000D03*
X142240000Y-123218000D03*
%TD*%
D19*
%TO.C,J1*%
X116150000Y-120675000D03*
D20*
X116150000Y-123215000D03*
X118690000Y-120675000D03*
X118690000Y-123215000D03*
X121230000Y-120675000D03*
X121230000Y-123215000D03*
X123770000Y-120675000D03*
X123770000Y-123215000D03*
X126310000Y-120675000D03*
X126310000Y-123215000D03*
X128850000Y-120675000D03*
X128850000Y-123215000D03*
X131390000Y-120675000D03*
X131390000Y-123215000D03*
X133930000Y-120675000D03*
X133930000Y-123215000D03*
X136470000Y-120675000D03*
X136470000Y-123215000D03*
X139010000Y-120675000D03*
X139010000Y-123215000D03*
%TD*%
D21*
%TO.C,Y1*%
X117424000Y-92875719D03*
D22*
X116524000Y-92875719D03*
X115824000Y-92875719D03*
X115124000Y-92875719D03*
D21*
X114224000Y-92875719D03*
X114224000Y-94875719D03*
D22*
X115124000Y-94875719D03*
X115824000Y-94875719D03*
X116524000Y-94875719D03*
D21*
X117424000Y-94875719D03*
%TD*%
D19*
%TO.C,J3*%
X149475000Y-74000000D03*
D20*
X146935000Y-74000000D03*
X144395000Y-74000000D03*
X141855000Y-74000000D03*
X139315000Y-74000000D03*
X136775000Y-74000000D03*
X134235000Y-74000000D03*
X131695000Y-74000000D03*
%TD*%
D23*
%TO.C,R13*%
X100482400Y-112371600D03*
X100482400Y-111351600D03*
%TD*%
D24*
%TO.C,R1*%
X139244800Y-76733400D03*
X138224800Y-76733400D03*
%TD*%
D25*
%TO.C,U2*%
X124597235Y-94842951D03*
X125056854Y-94383332D03*
X125516474Y-93923713D03*
X125976093Y-93464093D03*
X126435713Y-93004474D03*
X126895332Y-92544854D03*
X127354951Y-92085235D03*
X123306765Y-88037049D03*
X122847146Y-88496668D03*
X122387526Y-88956287D03*
X121927907Y-89415907D03*
X121468287Y-89875526D03*
X121008668Y-90335146D03*
X120549049Y-90794765D03*
%TD*%
D17*
%TO.C,C8*%
X152376740Y-100218258D03*
X151697918Y-100897080D03*
%TD*%
D24*
%TO.C,R5*%
X115597400Y-108839000D03*
X114577400Y-108839000D03*
%TD*%
%TO.C,R7*%
X115597400Y-109855000D03*
X114577400Y-109855000D03*
%TD*%
D26*
%TO.C,U4*%
X112812600Y-115087400D03*
X112812600Y-113817400D03*
X112812600Y-112547400D03*
X112812600Y-111277400D03*
X112812600Y-110007400D03*
X112812600Y-108737400D03*
X112812600Y-107467400D03*
X112812600Y-106197400D03*
X107862600Y-106197400D03*
X107862600Y-107467400D03*
X107862600Y-108737400D03*
X107862600Y-110007400D03*
X107862600Y-111277400D03*
X107862600Y-112547400D03*
X107862600Y-113817400D03*
X107862600Y-115087400D03*
%TD*%
D27*
%TO.C,Q3*%
X101869200Y-113787400D03*
X103769200Y-113787400D03*
X102819200Y-111912400D03*
%TD*%
%TO.C,Q4*%
X101869200Y-105964200D03*
X103769200Y-105964200D03*
X102819200Y-104089200D03*
%TD*%
D17*
%TO.C,C9*%
X156821740Y-98694258D03*
X156142918Y-99373080D03*
%TD*%
D23*
%TO.C,R14*%
X105156000Y-106501900D03*
X105156000Y-105481900D03*
%TD*%
%TO.C,R10*%
X105156000Y-110413500D03*
X105156000Y-109393500D03*
%TD*%
D28*
%TO.C,C6*%
X107040800Y-116459000D03*
X108000800Y-116459000D03*
%TD*%
D23*
%TO.C,R8*%
X105156000Y-118236700D03*
X105156000Y-117216700D03*
%TD*%
D17*
%TO.C,C14*%
X118866976Y-79996601D03*
X118188154Y-80675423D03*
%TD*%
D27*
%TO.C,Q2*%
X101869200Y-109875800D03*
X103769200Y-109875800D03*
X102819200Y-108000800D03*
%TD*%
D29*
%TO.C,C4*%
X130002550Y-101394550D03*
X130002550Y-102354550D03*
%TD*%
D30*
%TO.C,C15*%
X115796000Y-91335719D03*
X114836000Y-91335719D03*
%TD*%
D31*
%TO.C,J7*%
X150780000Y-81990000D03*
X150780000Y-83260000D03*
X150780000Y-84530000D03*
X150780000Y-85800000D03*
X150780000Y-87070000D03*
X150780000Y-88340000D03*
X150780000Y-89610000D03*
D32*
X153140000Y-79430000D03*
X153140000Y-92170000D03*
%TD*%
D33*
%TO.C,U1*%
X121692214Y-98898613D03*
D34*
X121381087Y-99294593D03*
X121027534Y-99648146D03*
X120673981Y-100001700D03*
X120320427Y-100355253D03*
X119966874Y-100708806D03*
D35*
X119570894Y-101019933D03*
D36*
X119570894Y-101723505D03*
D37*
X119966874Y-102034632D03*
X120320427Y-102388185D03*
X120673981Y-102741738D03*
X121027534Y-103095292D03*
X121381087Y-103448845D03*
D38*
X121692214Y-103844825D03*
D39*
X122395786Y-103844825D03*
D34*
X122706913Y-103448845D03*
X123060466Y-103095292D03*
X123414019Y-102741738D03*
X123767573Y-102388185D03*
X124121126Y-102034632D03*
D40*
X124517106Y-101723505D03*
D41*
X124517106Y-101019933D03*
D37*
X124121126Y-100708806D03*
X123767573Y-100355253D03*
X123414019Y-100001700D03*
X123060466Y-99648146D03*
X122706913Y-99294593D03*
D42*
X122395786Y-98898613D03*
%TD*%
D23*
%TO.C,R4*%
X137724150Y-110182350D03*
X137724150Y-109162350D03*
%TD*%
D43*
%TO.C,H2*%
X97600000Y-68600000D03*
%TD*%
D17*
%TO.C,C1*%
X119998811Y-98212589D03*
X119319989Y-98891411D03*
%TD*%
D23*
%TO.C,R15*%
X100482400Y-104548400D03*
X100482400Y-103528400D03*
%TD*%
D44*
%TO.C,U6*%
X153808258Y-97838938D03*
X153454705Y-98192491D03*
X153101151Y-98546045D03*
X152747598Y-98899598D03*
D45*
X153101151Y-99267293D03*
X153454705Y-99620847D03*
D44*
X153822400Y-99974400D03*
X154175953Y-99620847D03*
X154529507Y-99267293D03*
X154883060Y-98913740D03*
D45*
X154529507Y-98546045D03*
X154175953Y-98192491D03*
%TD*%
D23*
%TO.C,R2*%
X127450000Y-71260000D03*
X127450000Y-70240000D03*
%TD*%
D12*
%TO.C,J5*%
X96632000Y-117797000D03*
X96632000Y-116797000D03*
X96632000Y-115797000D03*
X96632000Y-114797000D03*
X96632000Y-113797000D03*
D13*
X94107000Y-119097000D03*
X94107000Y-112497000D03*
%TD*%
D16*
%TO.C,C13*%
X117121354Y-82308001D03*
X117800176Y-82986823D03*
%TD*%
D46*
%TO.C,J4*%
X148107000Y-120748000D03*
X149207000Y-120748000D03*
X150307000Y-120748000D03*
X151407000Y-120748000D03*
X152507000Y-120748000D03*
X153607000Y-120748000D03*
X154707000Y-120748000D03*
X155807000Y-120748000D03*
D47*
X158207000Y-118548000D03*
D48*
X152057000Y-127798000D03*
D47*
X144307000Y-118548000D03*
X158207000Y-126748000D03*
X144307000Y-126748000D03*
%TD*%
D23*
%TO.C,R6*%
X135158750Y-110182350D03*
X135158750Y-109162350D03*
%TD*%
D17*
%TO.C,C11*%
X155424740Y-100091258D03*
X154745918Y-100770080D03*
%TD*%
D23*
%TO.C,R12*%
X105156000Y-114325100D03*
X105156000Y-113305100D03*
%TD*%
D43*
%TO.C,H1*%
X157600000Y-68600000D03*
%TD*%
D27*
%TO.C,Q1*%
X101869200Y-117699000D03*
X103769200Y-117699000D03*
X102819200Y-115824000D03*
%TD*%
D49*
%TO.C,U7*%
X121378507Y-81517530D03*
D50*
X121024953Y-81163977D03*
X120671400Y-80810424D03*
D51*
X120317847Y-80456870D03*
D52*
X119734483Y-80810424D03*
D53*
X119380930Y-81163977D03*
D54*
X119027377Y-81517530D03*
D55*
X118673823Y-82100894D03*
D50*
X119027377Y-82454447D03*
X119380930Y-82808000D03*
D56*
X119734483Y-83161554D03*
D57*
X120317847Y-82808000D03*
D53*
X120671400Y-82454447D03*
D58*
X121024953Y-82100894D03*
%TD*%
D59*
%TO.C,U3*%
X131374150Y-107143550D03*
X132644150Y-107143550D03*
X133914150Y-107143550D03*
X135184150Y-107143550D03*
X136454150Y-107143550D03*
X137724150Y-107143550D03*
X138994150Y-107143550D03*
X140264150Y-107143550D03*
X140264150Y-102193550D03*
X138994150Y-102193550D03*
X137724150Y-102193550D03*
X136454150Y-102193550D03*
X135184150Y-102193550D03*
X133914150Y-102193550D03*
X132644150Y-102193550D03*
X131374150Y-102193550D03*
%TD*%
D19*
%TO.C,J2*%
X123475000Y-74000000D03*
D20*
X120935000Y-74000000D03*
X118395000Y-74000000D03*
X115855000Y-74000000D03*
X113315000Y-74000000D03*
X110775000Y-74000000D03*
X108235000Y-74000000D03*
X105695000Y-74000000D03*
%TD*%
D23*
%TO.C,R11*%
X100482400Y-108460000D03*
X100482400Y-107440000D03*
%TD*%
%TO.C,R9*%
X100482400Y-116283200D03*
X100482400Y-115263200D03*
%TD*%
D17*
%TO.C,C10*%
X156186740Y-100853258D03*
X155507918Y-101532080D03*
%TD*%
D60*
%TO.C,R3*%
X118902424Y-97861176D03*
X118181176Y-98582424D03*
%TD*%
M02*
