M48
; DRILL file {KiCad (6.0.9)} date Sat Nov 26 13:31:27 2022
; FORMAT={-:-/ absolute / inch / decimal}
; #@! TF.CreationDate,2022-11-26T13:31:27+01:00
; #@! TF.GenerationSoftware,Kicad,Pcbnew,(6.0.9)
; #@! TF.FileFunction,Plated,1,2,PTH
FMAT,2
INCH
; #@! TA.AperFunction,Plated,PTH,ViaDrill
T1C0.0118
; #@! TA.AperFunction,Plated,PTH,ViaDrill
T2C0.0157
; #@! TA.AperFunction,Plated,PTH,ViaDrill
T3C0.0197
; #@! TA.AperFunction,Plated,PTH,ComponentDrill
T4C0.0394
; #@! TA.AperFunction,Plated,PTH,ComponentDrill
T5C0.0591
%
G90
G05
T1
X3.8843Y-4.2477
X3.9Y-4.344
X3.92Y-4.049
X3.956Y-4.152
X3.956Y-4.308
X3.956Y-4.462
X3.956Y-4.612
X4.044Y-4.48
X4.046Y-4.172
X4.046Y-4.326
X4.046Y-4.634
X4.139Y-4.397
X4.14Y-4.225
X4.141Y-4.537
X4.197Y-4.649
X4.2273Y-4.7118
X4.2785Y-4.7121
X4.517Y-4.374
X4.551Y-4.257
X4.5523Y-4.3859
X4.568Y-4.41
X4.5898Y-4.4262
X4.609Y-4.077
X4.6091Y-4.131
X4.625Y-3.202
X4.637Y-3.931
X4.6467Y-4.0139
X4.647Y-4.1196
X4.7307Y-4.157
X4.7382Y-4.1898
X4.756Y-3.97
X4.757Y-3.821
X4.7577Y-4.2093
X4.7822Y-4.2338
X4.794Y-3.784
X4.7957Y-3.866
X4.8341Y-3.7439
X4.8516Y-3.7614
X4.8594Y-4.1276
X4.869Y-3.78
X4.8787Y-3.8649
X4.889Y-3.794
X4.9152Y-3.4775
X4.936Y-3.991
X4.943Y-3.5053
X4.9708Y-3.5332
X4.977Y-3.416
X4.9895Y-3.4585
X5.0042Y-3.4998
X5.0425Y-3.6885
X5.1Y-3.622
X5.118Y-4.07
X5.125Y-3.618
X5.151Y-3.367
X5.152Y-3.5916
X5.184Y-3.429
X5.1929Y-3.6319
X5.193Y-3.687
X5.1998Y-3.9218
X5.2Y-3.448
X5.215Y-3.555
X5.216Y-3.468
X5.2193Y-3.9023
X5.2724Y-3.5524
X5.284Y-3.624
X5.308Y-3.676
X5.3137Y-3.5927
X5.327Y-3.694
X5.3623Y-3.7287
X5.3657Y-3.6183
X5.3842Y-3.6368
X5.4123Y-3.7787
X5.4192Y-3.6718
X5.439Y-3.812
X5.471Y-3.72
X5.4847Y-3.4287
X5.4848Y-3.257
X5.4992Y-3.7518
X5.585Y-3.2564
X5.585Y-3.4025
X5.685Y-3.2525
X5.685Y-3.379
X5.6878Y-4.2258
X5.7303Y-4.0967
X5.778Y-4.089
X5.7835Y-4.1235
X5.785Y-3.2525
X5.785Y-3.328
X5.7852Y-4.3232
X5.7872Y-4.0398
X5.8072Y-4.0598
X5.8223Y-4.1887
X5.8272Y-4.0798
X5.8578Y-4.2242
X5.8665Y-4.1455
X5.8855Y-4.1965
X5.9774Y-3.8895
X6.0229Y-3.844
X6.0557Y-3.894
T2
X3.71Y-4.29
X3.72Y-4.64
X3.74Y-4.29
X3.75Y-4.64
X3.773Y-3.938
X3.79Y-4.755
X3.79Y-4.87
X3.79Y-5.02
X3.805Y-4.085
X3.845Y-3.979
X3.8583Y-3.7402
X3.8583Y-4.7047
X3.8743Y-3.4988
X3.8751Y-3.4592
X3.885Y-5.13
X3.8859Y-3.5366
X3.888Y-3.4218
X3.9086Y-3.5691
X3.9118Y-3.3902
X3.923Y-4.003
X3.937Y-3.7795
X3.9402Y-3.5929
X3.9442Y-3.3675
X3.945Y-3.48
X3.9567Y-4.7638
X3.9686Y-3.4354
X3.9718Y-3.5227
X3.9776Y-3.6058
X3.9821Y-3.356
X4.0171Y-3.6065
X4.018Y-4.003
X4.019Y-3.4336
X4.0217Y-3.3567
X4.0222Y-3.5209
X4.0458Y-3.4763
X4.05Y-5.13
X4.055Y-3.595
X4.0551Y-3.7795
X4.0591Y-3.3696
X4.0748Y-4.7638
X4.0874Y-3.5723
X4.0907Y-3.3934
X4.0945Y-3.1496
X4.1113Y-3.5407
X4.1134Y-3.4259
X4.124Y-3.987
X4.124Y-4.0945
X4.1242Y-3.5033
X4.1249Y-3.4637
X4.18Y-3.83
X4.2028Y-4.7638
X4.2028Y-4.872
X4.21Y-5.13
X4.2126Y-3.1496
X4.2126Y-4.0945
X4.218Y-3.973
X4.265Y-4.94
X4.285Y-3.83
X4.311Y-4.0945
X4.311Y-4.6063
X4.311Y-4.6752
X4.3209Y-4.1831
X4.3209Y-4.2323
X4.3209Y-4.2815
X4.3209Y-4.3307
X4.3209Y-4.3799
X4.3209Y-4.4291
X4.3209Y-4.4783
X4.328Y-3.973
X4.3307Y-3.1102
X4.3406Y-4.5472
X4.355Y-5.035
X4.355Y-5.13
X4.3602Y-4.1831
X4.3602Y-4.2323
X4.3602Y-4.2815
X4.3602Y-4.3307
X4.3602Y-4.3799
X4.3602Y-4.4291
X4.3602Y-4.4783
X4.3794Y-4.6356
X4.385Y-3.83
X4.3996Y-4.0945
X4.4094Y-3.1496
X4.423Y-3.973
X4.4291Y-3.5433
X4.4291Y-3.622
X4.4291Y-3.7402
X4.4291Y-4.5768
X4.475Y-5.04
X4.475Y-5.13
X4.485Y-3.83
X4.4882Y-3.189
X4.498Y-4.0945
X4.5276Y-3.2677
X4.5276Y-3.5433
X4.538Y-3.968
X4.5472Y-3.0709
X4.5472Y-4.1535
X4.5472Y-4.2126
X4.57Y-3.8
X4.575Y-3.345
X4.5768Y-4.0551
X4.62Y-3.53
X4.6457Y-3.3858
X4.6457Y-3.4646
X4.685Y-3.0709
X4.69Y-3.59
X4.6926Y-3.7614
X4.7011Y-3.6569
X4.747Y-3.636
X4.7539Y-3.3268
X4.7736Y-3.435
X4.7835Y-3.1299
X4.797Y-3.636
X4.802Y-3.958
X4.803Y-4.019
X4.813Y-3.3858
X4.823Y-3.594
X4.834Y-3.989
X4.854Y-3.635
X4.86Y-4.25
X4.862Y-3.577
X4.8819Y-3.2087
X4.9012Y-3.2869
X4.909Y-3.576
X4.91Y-3.634
X4.941Y-3.599
X4.95Y-4.35
X4.973Y-3.1984
X5.0Y-3.3661
X5.0093Y-4.2019
X5.0197Y-4.065
X5.035Y-4.43
X5.0394Y-3.2677
X5.0492Y-3.878
X5.0787Y-3.4449
X5.0984Y-3.3465
X5.128Y-4.2224
X5.1378Y-3.9469
X5.187Y-3.75
X5.232Y-3.01
X5.232Y-3.093
X5.232Y-3.171
X5.232Y-3.247
X5.232Y-3.33
X5.26Y-4.655
X5.2854Y-3.8878
X5.289Y-4.478
X5.338Y-3.042
X5.339Y-3.137
X5.339Y-3.224
X5.339Y-3.289
X5.3472Y-4.1208
X5.4134Y-3.5236
X5.436Y-3.104
X5.436Y-3.167
X5.436Y-3.229
X5.4794Y-3.9169
X5.4892Y-4.4168
X5.5282Y-4.3858
X5.5322Y-4.4608
X5.536Y-2.999
X5.536Y-3.074
X5.536Y-3.144
X5.536Y-3.223
X5.561Y-3.5925
X5.5702Y-4.4258
X5.5807Y-3.7598
X5.5812Y-4.4998
X5.6132Y-4.4688
X5.6193Y-4.242
X5.6299Y-3.8189
X5.6299Y-4.0453
X5.634Y-2.999
X5.634Y-3.074
X5.634Y-3.144
X5.634Y-3.223
X5.6496Y-3.7008
X5.6882Y-4.1535
X5.689Y-3.878
X5.7087Y-3.6319
X5.736Y-2.999
X5.736Y-3.074
X5.736Y-3.144
X5.736Y-3.223
X5.7579Y-3.937
X5.7677Y-3.5827
X5.833Y-2.999
X5.833Y-3.074
X5.833Y-3.144
X5.833Y-3.223
X5.8366Y-3.9075
X5.8559Y-4.3006
X5.8563Y-3.5728
X5.9052Y-3.8481
X5.9515Y-3.9948
X5.9621Y-4.3079
X5.9843Y-3.7992
X6.0134Y-4.2576
X6.016Y-4.119
X6.0827Y-3.7992
X6.097Y-4.2826
X6.122Y-4.3307
X6.1311Y-4.3798
X6.1319Y-3.8386
X6.1319Y-4.4488
X6.1417Y-4.2421
X6.1417Y-4.5374
X6.1906Y-4.1921
X6.2205Y-4.1437
X6.2297Y-4.0543
X6.2303Y-3.9173
X6.2303Y-3.9862
T3
X4.705Y-3.826
X4.7297Y-3.7243
T4
X4.1612Y-2.9134
X4.2612Y-2.9134
X4.3612Y-2.9134
X4.4612Y-2.9134
X4.5612Y-2.9134
X4.5728Y-4.751
X4.5728Y-4.851
X4.6612Y-2.9134
X4.6728Y-4.751
X4.6728Y-4.851
X4.7612Y-2.9134
X4.7728Y-4.751
X4.7728Y-4.851
X4.8612Y-2.9134
X4.8728Y-4.751
X4.8728Y-4.851
X4.9728Y-4.751
X4.9728Y-4.851
X5.0728Y-4.751
X5.0728Y-4.851
X5.1728Y-4.751
X5.1728Y-4.851
X5.1848Y-2.9134
X5.2728Y-4.751
X5.2728Y-4.851
X5.2848Y-2.9134
X5.3728Y-4.751
X5.3728Y-4.851
X5.3848Y-2.9134
X5.4728Y-4.751
X5.4728Y-4.851
X5.4848Y-2.9134
X5.5848Y-2.9134
X5.6848Y-2.9134
X5.7848Y-2.9134
X5.8848Y-2.9134
T5
X6.0291Y-3.1272
X6.0291Y-3.6287
T0
M30
