%TF.GenerationSoftware,KiCad,Pcbnew,(6.0.9)*%
%TF.CreationDate,2022-11-26T13:31:22+01:00*%
%TF.ProjectId,MCU_PCB,4d43555f-5043-4422-9e6b-696361645f70,rev?*%
%TF.SameCoordinates,Original*%
%TF.FileFunction,Legend,Bot*%
%TF.FilePolarity,Positive*%
%FSLAX46Y46*%
G04 Gerber Fmt 4.6, Leading zero omitted, Abs format (unit mm)*
G04 Created by KiCad (PCBNEW (6.0.9)) date 2022-11-26 13:31:22*
%MOMM*%
%LPD*%
G01*
G04 APERTURE LIST*
%ADD10C,0.450000*%
G04 APERTURE END LIST*
D10*
X148071428Y-91612142D02*
X148071428Y-88612142D01*
X147071428Y-90755000D01*
X146071428Y-88612142D01*
X146071428Y-91612142D01*
X144785714Y-90755000D02*
X143357142Y-90755000D01*
X145071428Y-91612142D02*
X144071428Y-88612142D01*
X143071428Y-91612142D01*
X142071428Y-91612142D02*
X142071428Y-88612142D01*
X141357142Y-88612142D01*
X140928571Y-88755000D01*
X140642857Y-89040714D01*
X140500000Y-89326428D01*
X140357142Y-89897857D01*
X140357142Y-90326428D01*
X140500000Y-90897857D01*
X140642857Y-91183571D01*
X140928571Y-91469285D01*
X141357142Y-91612142D01*
X142071428Y-91612142D01*
X139071428Y-90040714D02*
X138071428Y-90040714D01*
X137642857Y-91612142D02*
X139071428Y-91612142D01*
X139071428Y-88612142D01*
X137642857Y-88612142D01*
X133071428Y-90040714D02*
X132642857Y-90183571D01*
X132500000Y-90326428D01*
X132357142Y-90612142D01*
X132357142Y-91040714D01*
X132500000Y-91326428D01*
X132642857Y-91469285D01*
X132928571Y-91612142D01*
X134071428Y-91612142D01*
X134071428Y-88612142D01*
X133071428Y-88612142D01*
X132785714Y-88755000D01*
X132642857Y-88897857D01*
X132500000Y-89183571D01*
X132500000Y-89469285D01*
X132642857Y-89755000D01*
X132785714Y-89897857D01*
X133071428Y-90040714D01*
X134071428Y-90040714D01*
X130500000Y-90183571D02*
X130500000Y-91612142D01*
X131500000Y-88612142D02*
X130500000Y-90183571D01*
X129500000Y-88612142D01*
X125214285Y-90040714D02*
X124785714Y-90183571D01*
X124642857Y-90326428D01*
X124500000Y-90612142D01*
X124500000Y-91040714D01*
X124642857Y-91326428D01*
X124785714Y-91469285D01*
X125071428Y-91612142D01*
X126214285Y-91612142D01*
X126214285Y-88612142D01*
X125214285Y-88612142D01*
X124928571Y-88755000D01*
X124785714Y-88897857D01*
X124642857Y-89183571D01*
X124642857Y-89469285D01*
X124785714Y-89755000D01*
X124928571Y-89897857D01*
X125214285Y-90040714D01*
X126214285Y-90040714D01*
X123357142Y-90755000D02*
X121928571Y-90755000D01*
X123642857Y-91612142D02*
X122642857Y-88612142D01*
X121642857Y-91612142D01*
X120785714Y-91469285D02*
X120357142Y-91612142D01*
X119642857Y-91612142D01*
X119357142Y-91469285D01*
X119214285Y-91326428D01*
X119071428Y-91040714D01*
X119071428Y-90755000D01*
X119214285Y-90469285D01*
X119357142Y-90326428D01*
X119642857Y-90183571D01*
X120214285Y-90040714D01*
X120500000Y-89897857D01*
X120642857Y-89755000D01*
X120785714Y-89469285D01*
X120785714Y-89183571D01*
X120642857Y-88897857D01*
X120500000Y-88755000D01*
X120214285Y-88612142D01*
X119500000Y-88612142D01*
X119071428Y-88755000D01*
X117785714Y-90040714D02*
X116785714Y-90040714D01*
X116357142Y-91612142D02*
X117785714Y-91612142D01*
X117785714Y-88612142D01*
X116357142Y-88612142D01*
X115071428Y-91612142D02*
X115071428Y-88612142D01*
X114071428Y-90755000D01*
X113071428Y-88612142D01*
X113071428Y-91612142D01*
X111642857Y-90040714D02*
X110642857Y-90040714D01*
X110214285Y-91612142D02*
X111642857Y-91612142D01*
X111642857Y-88612142D01*
X110214285Y-88612142D01*
X108928571Y-91612142D02*
X108928571Y-88612142D01*
X107214285Y-91612142D01*
X107214285Y-88612142D01*
X106214285Y-88612142D02*
X104500000Y-88612142D01*
X105357142Y-91612142D02*
X105357142Y-88612142D01*
X145571428Y-96442142D02*
X145571428Y-93442142D01*
X144428571Y-93442142D01*
X144142857Y-93585000D01*
X144000000Y-93727857D01*
X143857142Y-94013571D01*
X143857142Y-94442142D01*
X144000000Y-94727857D01*
X144142857Y-94870714D01*
X144428571Y-95013571D01*
X145571428Y-95013571D01*
X140857142Y-96442142D02*
X141857142Y-95013571D01*
X142571428Y-96442142D02*
X142571428Y-93442142D01*
X141428571Y-93442142D01*
X141142857Y-93585000D01*
X141000000Y-93727857D01*
X140857142Y-94013571D01*
X140857142Y-94442142D01*
X141000000Y-94727857D01*
X141142857Y-94870714D01*
X141428571Y-95013571D01*
X142571428Y-95013571D01*
X139000000Y-93442142D02*
X138428571Y-93442142D01*
X138142857Y-93585000D01*
X137857142Y-93870714D01*
X137714285Y-94442142D01*
X137714285Y-95442142D01*
X137857142Y-96013571D01*
X138142857Y-96299285D01*
X138428571Y-96442142D01*
X139000000Y-96442142D01*
X139285714Y-96299285D01*
X139571428Y-96013571D01*
X139714285Y-95442142D01*
X139714285Y-94442142D01*
X139571428Y-93870714D01*
X139285714Y-93585000D01*
X139000000Y-93442142D01*
X135571428Y-93442142D02*
X135571428Y-95585000D01*
X135714285Y-96013571D01*
X136000000Y-96299285D01*
X136428571Y-96442142D01*
X136714285Y-96442142D01*
X134142857Y-94870714D02*
X133142857Y-94870714D01*
X132714285Y-96442142D02*
X134142857Y-96442142D01*
X134142857Y-93442142D01*
X132714285Y-93442142D01*
X129714285Y-96156428D02*
X129857142Y-96299285D01*
X130285714Y-96442142D01*
X130571428Y-96442142D01*
X131000000Y-96299285D01*
X131285714Y-96013571D01*
X131428571Y-95727857D01*
X131571428Y-95156428D01*
X131571428Y-94727857D01*
X131428571Y-94156428D01*
X131285714Y-93870714D01*
X131000000Y-93585000D01*
X130571428Y-93442142D01*
X130285714Y-93442142D01*
X129857142Y-93585000D01*
X129714285Y-93727857D01*
X128857142Y-93442142D02*
X127142857Y-93442142D01*
X128000000Y-96442142D02*
X128000000Y-93442142D01*
X124142857Y-93442142D02*
X123428571Y-96442142D01*
X122857142Y-94299285D01*
X122285714Y-96442142D01*
X121571428Y-93442142D01*
X120571428Y-95585000D02*
X119142857Y-95585000D01*
X120857142Y-96442142D02*
X119857142Y-93442142D01*
X118857142Y-96442142D01*
X118000000Y-96299285D02*
X117571428Y-96442142D01*
X116857142Y-96442142D01*
X116571428Y-96299285D01*
X116428571Y-96156428D01*
X116285714Y-95870714D01*
X116285714Y-95585000D01*
X116428571Y-95299285D01*
X116571428Y-95156428D01*
X116857142Y-95013571D01*
X117428571Y-94870714D01*
X117714285Y-94727857D01*
X117857142Y-94585000D01*
X118000000Y-94299285D01*
X118000000Y-94013571D01*
X117857142Y-93727857D01*
X117714285Y-93585000D01*
X117428571Y-93442142D01*
X116714285Y-93442142D01*
X116285714Y-93585000D01*
X115142857Y-96299285D02*
X114714285Y-96442142D01*
X114000000Y-96442142D01*
X113714285Y-96299285D01*
X113571428Y-96156428D01*
X113428571Y-95870714D01*
X113428571Y-95585000D01*
X113571428Y-95299285D01*
X113714285Y-95156428D01*
X114000000Y-95013571D01*
X114571428Y-94870714D01*
X114857142Y-94727857D01*
X115000000Y-94585000D01*
X115142857Y-94299285D01*
X115142857Y-94013571D01*
X115000000Y-93727857D01*
X114857142Y-93585000D01*
X114571428Y-93442142D01*
X113857142Y-93442142D01*
X113428571Y-93585000D01*
X112142857Y-93442142D02*
X112142857Y-95870714D01*
X112000000Y-96156428D01*
X111857142Y-96299285D01*
X111571428Y-96442142D01*
X111000000Y-96442142D01*
X110714285Y-96299285D01*
X110571428Y-96156428D01*
X110428571Y-95870714D01*
X110428571Y-93442142D01*
X109000000Y-96442142D02*
X109000000Y-93442142D01*
X107857142Y-93442142D01*
X107571428Y-93585000D01*
X107428571Y-93727857D01*
X107285714Y-94013571D01*
X107285714Y-94442142D01*
X107428571Y-94727857D01*
X107571428Y-94870714D01*
X107857142Y-95013571D01*
X109000000Y-95013571D01*
X139071428Y-101272142D02*
X139071428Y-98272142D01*
X138071428Y-100415000D01*
X137071428Y-98272142D01*
X137071428Y-101272142D01*
X133928571Y-100986428D02*
X134071428Y-101129285D01*
X134500000Y-101272142D01*
X134785714Y-101272142D01*
X135214285Y-101129285D01*
X135500000Y-100843571D01*
X135642857Y-100557857D01*
X135785714Y-99986428D01*
X135785714Y-99557857D01*
X135642857Y-98986428D01*
X135500000Y-98700714D01*
X135214285Y-98415000D01*
X134785714Y-98272142D01*
X134500000Y-98272142D01*
X134071428Y-98415000D01*
X133928571Y-98557857D01*
X132642857Y-98272142D02*
X132642857Y-100700714D01*
X132500000Y-100986428D01*
X132357142Y-101129285D01*
X132071428Y-101272142D01*
X131500000Y-101272142D01*
X131214285Y-101129285D01*
X131071428Y-100986428D01*
X130928571Y-100700714D01*
X130928571Y-98272142D01*
X126214285Y-99700714D02*
X125785714Y-99843571D01*
X125642857Y-99986428D01*
X125500000Y-100272142D01*
X125500000Y-100700714D01*
X125642857Y-100986428D01*
X125785714Y-101129285D01*
X126071428Y-101272142D01*
X127214285Y-101272142D01*
X127214285Y-98272142D01*
X126214285Y-98272142D01*
X125928571Y-98415000D01*
X125785714Y-98557857D01*
X125642857Y-98843571D01*
X125642857Y-99129285D01*
X125785714Y-99415000D01*
X125928571Y-99557857D01*
X126214285Y-99700714D01*
X127214285Y-99700714D01*
X123642857Y-98272142D02*
X123071428Y-98272142D01*
X122785714Y-98415000D01*
X122500000Y-98700714D01*
X122357142Y-99272142D01*
X122357142Y-100272142D01*
X122500000Y-100843571D01*
X122785714Y-101129285D01*
X123071428Y-101272142D01*
X123642857Y-101272142D01*
X123928571Y-101129285D01*
X124214285Y-100843571D01*
X124357142Y-100272142D01*
X124357142Y-99272142D01*
X124214285Y-98700714D01*
X123928571Y-98415000D01*
X123642857Y-98272142D01*
X121214285Y-100415000D02*
X119785714Y-100415000D01*
X121500000Y-101272142D02*
X120500000Y-98272142D01*
X119500000Y-101272142D01*
X116785714Y-101272142D02*
X117785714Y-99843571D01*
X118500000Y-101272142D02*
X118500000Y-98272142D01*
X117357142Y-98272142D01*
X117071428Y-98415000D01*
X116928571Y-98557857D01*
X116785714Y-98843571D01*
X116785714Y-99272142D01*
X116928571Y-99557857D01*
X117071428Y-99700714D01*
X117357142Y-99843571D01*
X118500000Y-99843571D01*
X115500000Y-101272142D02*
X115500000Y-98272142D01*
X114785714Y-98272142D01*
X114357142Y-98415000D01*
X114071428Y-98700714D01*
X113928571Y-98986428D01*
X113785714Y-99557857D01*
X113785714Y-99986428D01*
X113928571Y-100557857D01*
X114071428Y-100843571D01*
X114357142Y-101129285D01*
X114785714Y-101272142D01*
X115500000Y-101272142D01*
X128928571Y-103102142D02*
X127928571Y-106102142D01*
X126928571Y-103102142D01*
X124357142Y-106102142D02*
X126071428Y-106102142D01*
X125214285Y-106102142D02*
X125214285Y-103102142D01*
X125500000Y-103530714D01*
X125785714Y-103816428D01*
X126071428Y-103959285D01*
M02*
